:FULLY-SPECIFIED
:FORCE-ALL-JOINTS-BE-3DOF
:DEGREES
2854
root -6.07942 13.2709 -28.797 1241.13 -66.8192 -159.414
lfemur -65.7851 45.1484 -6.06183
ltibia 77.0859 0 0
lfoot -4.87764 -6.21473 0
ltoes -28.9657 0 0
rfemur -31.3148 -19.1827 22.1757
rtibia 88.835 0 0
rfoot -40.9013 -28.9301 0
rtoes -13.9568 0 0
lowerback 15.5974 5.62851 0.989635
upperback -4.51383 7.99404 1.63324
thorax -13.9225 3.69857 -0.913215
lowerneck -2.55341 9.6223 2.19616
upperneck 9.14069 12.5284 2.06405
head 3.39853 6.32904 0.766736
lclavicle -3.16067e-14 -1.695e-14 0
lhumerus 5.30699 12.3236 84.2967
lradius 93.4392 0 0
lwrist -19.0365 0 0
lhand -39.567 388.612 0
lfingers 7.12502 0 0
lthumb -12.5504 -661.785 0
rclavicle -3.16067e-14 -1.695e-14 0
rhumerus -59.1809 51.0784 -111.593
rradius 113.577 0 0
rwrist -83.7808 0 0
rhand 7.86591 -386.246 0
rfingers 7.12502 0 0
rthumb 33.0995 306.775 0
2855
root -6.08047 13.2681 -28.7961 1241.09 -66.8265 -159.361
lfemur -65.8296 45.1404 -6.05852
ltibia 77.1195 0 0
lfoot -4.90128 -6.22675 0
ltoes -29.0017 0 0
rfemur -31.3353 -19.1762 22.1998
rtibia 88.8594 0 0
rfoot -40.8956 -28.9748 0
rtoes -13.9694 0 0
lowerback 15.6127 5.62448 1.01262
upperback -4.51806 7.99426 1.63656
thorax -13.934 3.69637 -0.923974
lowerneck -2.5573 9.6232 2.19682
upperneck 9.14321 12.5293 2.06512
head 3.40011 6.32958 0.76735
lclavicle -3.14328e-14 -1.67949e-14 0
lhumerus 5.31949 12.3294 84.2982
lradius 93.4291 0 0
lwrist -19.0304 0 0
lhand -39.5651 388.622 0
lfingers 7.12502 0 0
lthumb -12.5485 -661.775 0
rclavicle -3.14328e-14 -1.67949e-14 0
rhumerus -59.1826 51.0923 -111.593
rradius 113.574 0 0
rwrist -83.7635 0 0
rhand 7.87436 -386.238 0
rfingers 7.12502 0 0
rthumb 33.1075 306.784 0
2856
root -6.08153 13.2653 -28.7952 1241.05 -66.8339 -159.308
lfemur -65.8741 45.1324 -6.05521
ltibia 77.1531 0 0
lfoot -4.92492 -6.23877 0
ltoes -29.0377 0 0
rfemur -31.3557 -19.1696 22.2239
rtibia 88.8838 0 0
rfoot -40.8899 -29.0195 0
rtoes -13.9819 0 0
lowerback 15.628 5.62045 1.0356
upperback -4.5223 7.99448 1.63989
thorax -13.9455 3.69417 -0.934734
lowerneck -2.56118 9.6241 2.19747
upperneck 9.14573 12.5303 2.06619
head 3.40169 6.33011 0.767964
lclavicle -3.12588e-14 -1.66397e-14 0
lhumerus 5.332 12.3353 84.2996
lradius 93.4189 0 0
lwrist -19.0243 0 0
lhand -39.5632 388.631 0
lfingers 7.12502 0 0
lthumb -12.5467 -661.765 0
rclavicle -3.12588e-14 -1.66397e-14 0
rhumerus -59.1842 51.1063 -111.593
rradius 113.571 0 0
rwrist -83.7461 0 0
rhand 7.88282 -386.231 0
rfingers 7.12502 0 0
rthumb 33.1156 306.794 0
2857
root -6.08258 13.2625 -28.7944 1241.01 -66.8412 -159.255
lfemur -65.9185 45.1243 -6.0519
ltibia 77.1868 0 0
lfoot -4.94856 -6.25079 0
ltoes -29.0736 0 0
rfemur -31.3762 -19.1631 22.248
rtibia 88.9081 0 0
rfoot -40.8842 -29.0642 0
rtoes -13.9945 0 0
lowerback 15.6433 5.61642 1.05859
upperback -4.52653 7.9947 1.64321
thorax -13.957 3.69196 -0.945493
lowerneck -2.56507 9.625 2.19813
upperneck 9.14825 12.5312 2.06727
head 3.40328 6.33065 0.768578
lclavicle -3.10849e-14 -1.64846e-14 0
lhumerus 5.3445 12.3411 84.3011
lradius 93.4088 0 0
lwrist -19.0182 0 0
lhand -39.5613 388.641 0
lfingers 7.12502 0 0
lthumb -12.5449 -661.756 0
rclavicle -3.10849e-14 -1.64846e-14 0
rhumerus -59.1859 51.1202 -111.594
rradius 113.568 0 0
rwrist -83.7288 0 0
rhand 7.89127 -386.223 0
rfingers 7.12502 0 0
rthumb 33.1236 306.803 0
2858
root -6.08364 13.2597 -28.7935 1240.97 -66.8485 -159.202
lfemur -65.963 45.1163 -6.04859
ltibia 77.2204 0 0
lfoot -4.9722 -6.26281 0
ltoes -29.1096 0 0
rfemur -31.3967 -19.1565 22.2721
rtibia 88.9325 0 0
rfoot -40.8785 -29.1089 0
rtoes -14.0071 0 0
lowerback 15.6586 5.61239 1.08157
upperback -4.53077 7.99492 1.64654
thorax -13.9685 3.68976 -0.956252
lowerneck -2.56896 9.6259 2.19878
upperneck 9.15077 12.5321 2.06834
head 3.40486 6.33119 0.769192
lclavicle -3.0911e-14 -1.63294e-14 0
lhumerus 5.357 12.347 84.3026
lradius 93.3987 0 0
lwrist -19.0121 0 0
lhand -39.5594 388.651 0
lfingers 7.12502 0 0
lthumb -12.543 -661.746 0
rclavicle -3.0911e-14 -1.63294e-14 0
rhumerus -59.1876 51.1342 -111.594
rradius 113.565 0 0
rwrist -83.7114 0 0
rhand 7.89973 -386.216 0
rfingers 7.12502 0 0
rthumb 33.1317 306.812 0
2859
root -6.0847 13.2569 -28.7926 1240.94 -66.8558 -159.149
lfemur -66.0075 45.1083 -6.04528
ltibia 77.2541 0 0
lfoot -4.99584 -6.27483 0
ltoes -29.1456 0 0
rfemur -31.4172 -19.15 22.2961
rtibia 88.9569 0 0
rfoot -40.8728 -29.1535 0
rtoes -14.0196 0 0
lowerback 15.6739 5.60836 1.10456
upperback -4.53501 7.99514 1.64986
thorax -13.98 3.68756 -0.967011
lowerneck -2.57284 9.6268 2.19944
upperneck 9.1533 12.5331 2.06942
head 3.40645 6.33173 0.769806
lclavicle -3.0737e-14 -1.61743e-14 0
lhumerus 5.3695 12.3529 84.3041
lradius 93.3886 0 0
lwrist -19.006 0 0
lhand -39.5575 388.661 0
lfingers 7.12502 0 0
lthumb -12.5412 -661.736 0
rclavicle -3.0737e-14 -1.61743e-14 0
rhumerus -59.1893 51.1481 -111.594
rradius 113.562 0 0
rwrist -83.694 0 0
rhand 7.90819 -386.209 0
rfingers 7.12502 0 0
rthumb 33.1397 306.821 0
2860
root -6.08575 13.2541 -28.7918 1240.9 -66.8631 -159.096
lfemur -66.052 45.1002 -6.04197
ltibia 77.2877 0 0
lfoot -5.01948 -6.28685 0
ltoes -29.1816 0 0
rfemur -31.4377 -19.1435 22.3202
rtibia 88.9813 0 0
rfoot -40.8671 -29.1982 0
rtoes -14.0322 0 0
lowerback 15.6892 5.60433 1.12754
upperback -4.53924 7.99536 1.65319
thorax -13.9915 3.68536 -0.97777
lowerneck -2.57673 9.6277 2.2001
upperneck 9.15582 12.534 2.07049
head 3.40803 6.33226 0.77042
lclavicle -3.05631e-14 -1.60191e-14 0
lhumerus 5.38201 12.3587 84.3055
lradius 93.3784 0 0
lwrist -18.9999 0 0
lhand -39.5556 388.67 0
lfingers 7.12502 0 0
lthumb -12.5394 -661.726 0
rclavicle -3.05631e-14 -1.60191e-14 0
rhumerus -59.1909 51.1621 -111.594
rradius 113.559 0 0
rwrist -83.6767 0 0
rhand 7.91664 -386.201 0
rfingers 7.12502 0 0
rthumb 33.1477 306.83 0
2861
root -6.08681 13.2513 -28.7909 1240.86 -66.8704 -159.043
lfemur -66.0964 45.0922 -6.03867
ltibia 77.3214 0 0
lfoot -5.04312 -6.29888 0
ltoes -29.2175 0 0
rfemur -31.4582 -19.1369 22.3443
rtibia 89.0057 0 0
rfoot -40.8613 -29.2429 0
rtoes -14.0448 0 0
lowerback 15.7045 5.6003 1.15053
upperback -4.54348 7.99559 1.65651
thorax -14.0029 3.68315 -0.988529
lowerneck -2.58062 9.6286 2.20075
upperneck 9.15834 12.5349 2.07157
head 3.40962 6.3328 0.771033
lclavicle -3.03892e-14 -1.5864e-14 0
lhumerus 5.39451 12.3646 84.307
lradius 93.3683 0 0
lwrist -18.9937 0 0
lhand -39.5537 388.68 0
lfingers 7.12502 0 0
lthumb -12.5375 -661.716 0
rclavicle -3.03892e-14 -1.5864e-14 0
rhumerus -59.1926 51.176 -111.594
rradius 113.555 0 0
rwrist -83.6593 0 0
rhand 7.9251 -386.194 0
rfingers 7.12502 0 0
rthumb 33.1558 306.839 0
